# xmcd CD database file
#
# Track frame offsets:
#	150
#	14280
#	28476
#	46137
#	63616
#
# Disc length: 1028 seconds
#
# Revision: 0
# Processed by: cddbd v1.5.2PL0 Copyright (c) Steve Scherf et al.
# Submitted via: CDex 1.78
#
DISCID=3f040205
DTITLE=Sasha Colette and the Magnolias - Ridin' Away
DYEAR=1900
DGENRE=Country
TTITLE0=Leroy
TTITLE1=Hi Ho Silver
TTITLE2=Red Bandana
TTITLE3=Ridin' Away
TTITLE4=Goodbye Buffalo
EXTD=
EXTT0=
EXTT1=
EXTT2=
EXTT3=
EXTT4=
PLAYORDER=
